<?xml version="1.0" encoding="UTF-8"?>
<!DOCTYPE svg PUBLIC "-//W3C//DTD SVG 1.1//EN" "http://www.w3.org/Graphics/SVG/1.1/DTD/svg11.dtd">
<svg xmlns="http://www.w3.org/2000/svg" version="1.1" width="291px" height="150px" style="shape-rendering:geometricPrecision; text-rendering:geometricPrecision; image-rendering:optimizeQuality; fill-rule:evenodd; clip-rule:evenodd" xmlns:xlink="http://www.w3.org/1999/xlink">
<g><path style="opacity:0.971" fill="#088dbe" d="M 179.5,5.5 C 184.844,5.33398 190.177,5.50065 195.5,6C 199.485,7.62661 201.485,10.6266 201.5,15C 199.549,24.6089 195.382,33.1089 189,40.5C 174.544,57.6256 158.211,72.6256 140,85.5C 138.77,84.7248 138.437,83.7248 139,82.5C 154.63,70.5374 168.63,56.8707 181,41.5C 185.84,35.6493 187.84,28.9826 187,21.5C 182.929,18.0871 178.429,17.5871 173.5,20C 162.159,24.4205 150.992,29.2539 140,34.5C 138.107,33.8037 136.274,32.9704 134.5,32C 129.136,31.8295 123.802,31.3295 118.5,30.5C 137.903,19.5959 158.236,11.2625 179.5,5.5 Z"/></g>
<g><path style="opacity:0.975" fill="#cb1251" d="M 1.5,34.5 C 6.84372,34.334 12.1771,34.5006 17.5,35C 18.6667,36.1667 19.8333,37.3333 21,38.5C 29.7462,54.994 38.7462,71.3273 48,87.5C 48.3826,86.944 48.8826,86.6107 49.5,86.5C 51.9927,92.9797 55.6593,98.6464 60.5,103.5C 59.7099,107.439 57.3765,109.773 53.5,110.5C 50.4822,101.052 45.1489,92.5516 37.5,85C 28.2697,68.3393 17.9364,52.0059 6.5,36C 4.61828,35.8019 2.95161,35.3019 1.5,34.5 Z"/></g>
<g><path style="opacity:0.983" fill="#f50856" d="M 109.5,98.5 C 108.504,98.5858 107.671,98.2524 107,97.5C 104.032,92.3003 100.865,87.3003 97.5,82.5C 102.361,73.2804 107.361,64.1137 112.5,55C 107.887,48.9542 103.887,42.4542 100.5,35.5C 111.485,34.3342 122.485,34.1676 133.5,35C 138.224,37.4353 139.724,41.2686 138,46.5C 128.726,64.0557 119.226,81.389 109.5,98.5 Z"/></g>
<g><path style="opacity:0.984" fill="#e40c54" d="M 47.5,34.5 C 48.6085,35.29 49.9419,35.79 51.5,36C 51.1667,36.3333 50.8333,36.6667 50.5,37C 52.6785,37.4419 53.3452,38.4419 52.5,40C 53.3279,40.9147 54.3279,41.5814 55.5,42C 55.1667,42.3333 54.8333,42.6667 54.5,43C 58.9474,49.2586 63.6141,55.2586 68.5,61C 68.1667,61.3333 67.8333,61.6667 67.5,62C 70.1153,66.2829 73.1153,70.2829 76.5,74C 76.1667,74.3333 75.8333,74.6667 75.5,75C 77.9589,75.724 78.9589,77.0573 78.5,79C 83.0121,84.7643 87.1788,90.2643 91,95.5C 91.346,97.2182 91.846,98.8849 92.5,100.5C 95.1642,103.825 97.8309,107.158 100.5,110.5C 95.4889,110.666 90.4889,110.499 85.5,110C 71.9527,86.4079 58.786,62.5745 46,38.5C 45.2274,36.6476 45.7274,35.3143 47.5,34.5 Z"/></g>
<g><path style="opacity:0.995" fill="#ec0a55" d="M 47.5,34.5 C 53.6208,34.0899 59.6208,34.5899 65.5,36C 75.1271,53.4201 84.6271,70.9201 94,88.5C 94.941,86.2726 96.1077,84.2726 97.5,82.5C 100.865,87.3003 104.032,92.3003 107,97.5C 107.671,98.2524 108.504,98.5858 109.5,98.5C 108.027,101.447 106.527,104.447 105,107.5C 103.871,109.141 102.371,110.141 100.5,110.5C 97.8309,107.158 95.1642,103.825 92.5,100.5C 91.846,98.8849 91.346,97.2182 91,95.5C 87.1788,90.2643 83.0121,84.7643 78.5,79C 78.9589,77.0573 77.9589,75.724 75.5,75C 75.8333,74.6667 76.1667,74.3333 76.5,74C 73.1153,70.2829 70.1153,66.2829 67.5,62C 67.8333,61.6667 68.1667,61.3333 68.5,61C 63.6141,55.2586 58.9474,49.2586 54.5,43C 54.8333,42.6667 55.1667,42.3333 55.5,42C 54.3279,41.5814 53.3279,40.9147 52.5,40C 53.3452,38.4419 52.6785,37.4419 50.5,37C 50.8333,36.6667 51.1667,36.3333 51.5,36C 49.9419,35.79 48.6085,35.29 47.5,34.5 Z"/></g>
<g><path style="opacity:0.976" fill="#f40a57" d="M 72.5,34.5 C 80.5277,34.169 88.5277,34.5023 96.5,35.5C 99.7547,41.0084 102.755,46.675 105.5,52.5C 96.7901,53.8765 88.1234,53.7098 79.5,52C 76.5665,47.4641 73.8999,42.7974 71.5,38C 72.3366,36.9887 72.67,35.8221 72.5,34.5 Z"/></g>
<g><path style="opacity:0.947" fill="#c21550" d="M 1.5,34.5 C 2.95161,35.3019 4.61828,35.8019 6.5,36C 17.9364,52.0059 28.2697,68.3393 37.5,85C 45.1489,92.5516 50.4822,101.052 53.5,110.5C 48.8215,110.666 44.1548,110.499 39.5,110C 38.6667,109.167 37.8333,108.333 37,107.5C 24.7401,84.6423 12.2401,61.9757 -0.5,39.5C -0.5,38.1667 -0.5,36.8333 -0.5,35.5C 0.166667,35.1667 0.833333,34.8333 1.5,34.5 Z"/></g>
<g><path style="opacity:0.595" fill="#929497" d="M 261.5,69.5 C 262.833,69.5 264.167,69.5 265.5,69.5C 265.778,71.3464 265.111,72.6798 263.5,73.5C 261.889,72.6798 261.222,71.3464 261.5,69.5 Z"/></g>
<g><path style="opacity:0.788" fill="#939397" d="M 290.5,74.5 C 290.5,77.1667 290.5,79.8333 290.5,82.5C 289.406,83.5817 288.073,84.2483 286.5,84.5C 284.197,83.4706 281.864,83.4706 279.5,84.5C 279.519,89.9836 277.019,91.6503 272,89.5C 270.991,87.9751 270.491,86.3084 270.5,84.5C 262.208,83.983 253.874,83.983 245.5,84.5C 245.5,83.1667 245.5,81.8333 245.5,80.5C 248.073,80.8515 250.406,80.3515 252.5,79C 250.773,77.6106 249.439,75.9439 248.5,74C 248.613,72.7202 249.28,71.8869 250.5,71.5C 253.628,74.7873 256.961,77.7873 260.5,80.5C 262.283,78.9775 262.949,76.9775 262.5,74.5C 264.167,74.5 265.833,74.5 267.5,74.5C 267.051,76.9775 267.717,78.9775 269.5,80.5C 270.277,78.2188 271.277,76.0521 272.5,74C 277.624,72.9463 280.291,75.113 280.5,80.5C 281.113,73.8796 284.446,71.8796 290.5,74.5 Z M 285.5,77.5 C 287.973,77.9473 288.14,78.9473 286,80.5C 285.517,79.552 285.351,78.552 285.5,77.5 Z"/></g>
<g><path style="opacity:0.878" fill="#6c6e70" d="M 125.5,73.5 C 128.167,73.5 130.833,73.5 133.5,73.5C 133.334,82.5062 133.5,91.5062 134,100.5C 134.5,101 135,101.5 135.5,102C 143.5,102.667 151.5,102.667 159.5,102C 161.312,98.078 161.979,93.9113 161.5,89.5C 163.833,89.5 166.167,89.5 168.5,89.5C 168.666,94.5111 168.499,99.5111 168,104.5C 167.215,106.286 166.049,107.786 164.5,109C 153.932,110.619 143.265,110.952 132.5,110C 128.479,108.132 126.313,104.965 126,100.5C 125.5,91.5062 125.334,82.5062 125.5,73.5 Z"/></g>
<g><path style="opacity:0.896" fill="#6c6d70" d="M 174.5,73.5 C 177.167,73.5 179.833,73.5 182.5,73.5C 182.334,82.8393 182.5,92.1726 183,101.5C 186.786,102.795 190.62,102.795 194.5,101.5C 195.433,97.5705 195.766,93.5705 195.5,89.5C 198.167,89.5 200.833,89.5 203.5,89.5C 205.425,110.059 196.758,116.225 177.5,108C 176.283,106.352 175.45,104.519 175,102.5C 174.5,92.8391 174.334,83.1724 174.5,73.5 Z"/></g>
<g><path style="opacity:0.978" fill="#d51153" d="M 60.5,103.5 C 55.6593,98.6464 51.9927,92.9797 49.5,86.5C 51.7105,80.4122 54.7105,74.7455 58.5,69.5C 62.1056,75.7121 65.4389,82.0454 68.5,88.5C 66.0763,93.6836 63.4096,98.6836 60.5,103.5 Z"/></g>
<g><path style="opacity:0.785" fill="#929497" d="M 228.5,74.5 C 229.833,74.5 231.167,74.5 232.5,74.5C 233.167,81.1667 233.833,81.1667 234.5,74.5C 235.833,74.5 237.167,74.5 238.5,74.5C 239.167,81.1667 239.833,81.1667 240.5,74.5C 241.833,74.5 243.167,74.5 244.5,74.5C 245.457,79.2536 243.79,82.587 239.5,84.5C 235.833,84.3333 232.167,84.1667 228.5,84C 223.174,91.3763 217.008,92.2096 210,86.5C 209.503,83.854 209.336,81.1873 209.5,78.5C 210.833,78.5 212.167,78.5 213.5,78.5C 212.422,85.0653 215.089,87.232 221.5,85C 219.137,84.4115 218.137,82.9115 218.5,80.5C 221.579,80.7399 224.579,80.4066 227.5,79.5C 228.452,77.9547 228.785,76.288 228.5,74.5 Z"/></g>
<g><path style="opacity:0.773" fill="#6f6c70" d="M 189.5,77.5 C 191.993,77.3291 193.826,78.3291 195,80.5C 197.153,77.6483 199.653,77.1483 202.5,79C 204.399,82.6815 203.399,85.1815 199.5,86.5C 197.742,85.8721 196.242,84.8721 195,83.5C 191.454,87.6589 188.621,87.1589 186.5,82C 186.957,80.0598 187.957,78.5598 189.5,77.5 Z"/></g>
<g><path style="opacity:0.741" fill="#929497" d="M 233.5,93.5 C 234.833,93.5 236.167,93.5 237.5,93.5C 237.174,97.8839 237.508,102.217 238.5,106.5C 239.453,104.092 240.787,101.925 242.5,100C 249.001,99.1877 251.168,102.021 249,108.5C 248.5,109 248,109.5 247.5,110C 243.5,110.667 239.5,110.667 235.5,110C 235,109.5 234.5,109 234,108.5C 233.501,103.511 233.334,98.5111 233.5,93.5 Z M 244.5,103.5 C 245.776,104.386 245.776,105.386 244.5,106.5C 243.438,105.575 243.438,104.575 244.5,103.5 Z"/></g>
<g><path style="opacity:0.712" fill="#939194" d="M 269.5,93.5 C 272.166,93.0658 273.333,94.0658 273,96.5C 269.403,98.0661 268.237,97.0661 269.5,93.5 Z"/></g>
<g><path style="opacity:0.943" fill="#d60f52" d="M 68.5,95.5 C 70.288,95.2148 71.9547,95.5481 73.5,96.5C 75.579,100.993 77.9123,105.326 80.5,109.5C 74.1667,110.833 67.8333,110.833 61.5,109.5C 63.8599,104.78 66.1932,100.114 68.5,95.5 Z"/></g>
<g><path style="opacity:0.591" fill="#929497" d="M 217.5,97.5 C 219.833,97.5 222.167,97.5 224.5,97.5C 224.5,98.8333 224.5,100.167 224.5,101.5C 222.143,101.663 219.81,101.497 217.5,101C 216.316,99.8545 216.316,98.6879 217.5,97.5 Z"/></g>
<g><path style="opacity:0.752" fill="#939497" d="M 255.5,97.5 C 258.266,100.164 260.933,102.997 263.5,106C 266.964,106.817 270.298,106.483 273.5,105C 271.319,102.922 269.319,103.089 267.5,105.5C 263.622,103.599 263.622,101.766 267.5,100C 272.46,98.9814 276.46,100.481 279.5,104.5C 277.909,107.256 275.576,109.089 272.5,110C 265.097,109.767 257.764,109.934 250.5,110.5C 250.5,109.167 250.5,107.833 250.5,106.5C 252.924,106.808 255.257,106.474 257.5,105.5C 256.167,103.833 254.833,102.167 253.5,100.5C 254.193,99.4822 254.859,98.4822 255.5,97.5 Z"/></g>
<g><path style="opacity:0.738" fill="#939397" d="M 290.5,103.5 C 290.5,106.5 290.5,109.5 290.5,112.5C 288.153,115.917 284.82,117.251 280.5,116.5C 280.5,115.167 280.5,113.833 280.5,112.5C 282.288,112.785 283.955,112.452 285.5,111.5C 280.204,109.226 279.204,105.726 282.5,101C 285.971,99.8366 288.638,100.67 290.5,103.5 Z M 284.5,104.5 C 286.337,104.639 286.67,105.306 285.5,106.5C 284.702,106.043 284.369,105.376 284.5,104.5 Z"/></g>
<g><path style="opacity:0.755" fill="#929497" d="M 209.5,101.5 C 210.833,101.5 212.167,101.5 213.5,101.5C 213.5,103.167 213.5,104.833 213.5,106.5C 218.167,106.5 222.833,106.5 227.5,106.5C 227.5,104.833 227.5,103.167 227.5,101.5C 228.833,101.5 230.167,101.5 231.5,101.5C 232.486,109.834 228.819,112.834 220.5,110.5C 212.24,112.879 208.574,109.879 209.5,101.5 Z"/></g>
<g><path style="opacity:0.798" fill="#6d6d70" d="M 156.5,114.5 C 159.779,114.305 161.779,115.805 162.5,119C 159.705,124.806 156.705,124.806 153.5,119C 154.386,117.385 155.386,115.885 156.5,114.5 Z"/></g>
<g><path style="opacity:1" fill="#0f4d7e" d="M 27.5,98.5 C 29.8565,101.365 31.8565,104.532 33.5,108C 26.8454,115.326 21.8454,123.659 18.5,133C 18.9755,134.763 19.6422,136.43 20.5,138C 25.7175,139.563 31.0509,139.896 36.5,139C 45.4394,136.853 54.1061,134.02 62.5,130.5C 63.9317,130.733 64.4317,131.4 64,132.5C 50.1252,139.569 35.4585,144.236 20,146.5C 12.5803,146.892 8.08027,143.559 6.5,136.5C 7.36285,132.411 8.52951,128.411 10,124.5C 15.1003,115.287 20.9336,106.62 27.5,98.5 Z"/></g>
</svg>
